<svg id="Layer_1" data-name="Layer 1" xmlns="http://www.w3.org/2000/svg" viewBox="0 0 346.1159 140.2923"><title>CH_logo_white_RGB</title><path d="M71.3469,31.4294l-.8405,2.0287A30.2128,30.2128,0,0,1,47.3826,89.284l-.84,2.0287A32.4087,32.4087,0,1,0,71.3469,31.4294M60.0085,96.1414H57.8122c0,5.5235-5.5353,10.0181-12.3391,10.0181v2.1953H72.3476V106.16c-6.8038,0-12.3391-4.4946-12.3391-10.0181m.36-12.5676a4.0765,4.0765,0,0,0-1.5534-1.222,4.2854,4.2854,0,0,1-1.6891-1.354,2.7483,2.7483,0,0,1-.1876-2.4485c.1611-.5673.203-.7622-.0137-1.0809-.1329-.1966-.27-.2349-.91-.254A2.5742,2.5742,0,0,1,53.67,76.1672a2.7657,2.7657,0,0,1,.1166-2.7326c.337-.7676.3752-.9788.2167-1.19-.0865-.1156-.376-.1447-.8085-.1757a2.8052,2.8052,0,0,1-2.3284-1.0462c-1.0162-1.47-.366-2.6744.2077-3.737l.2231-.418a1.5737,1.5737,0,0,0-.0538-1.7919c-.4862-.6447-2.3138-.8724-3.7825-1.0563-.3-.0374-.5991-.0747-.8951-.1157a9.2039,9.2039,0,0,1-5.9715-2.8855c-.0373-.0374-.0746-.0674-.1111-.1066-2.3119-2.4612-3.9982-4.021-6.3-3.268-3.085,1.0044-3.2124,5.0391-2.7608,8.3007A27.9439,27.9439,0,0,0,47.9736,87.0321c4.3315,1.6117,8.0931,1.5826,11.1817-.0929a2.7455,2.7455,0,0,0,1.5116-1.7054A2.1564,2.1564,0,0,0,60.3682,83.5738ZM39.9952,65.29a1.586,1.586,0,1,1-1.1091-1.9485A1.5854,1.5854,0,0,1,39.9952,65.29ZM58.9477,33.47c-.0364,0-.0737.0009-.1111.0009A27.8974,27.8974,0,0,0,31.4332,56.7367a5.8726,5.8726,0,0,1,2.0687-1.181c3.7744-1.2293,6.415,1.5461,8.5384,3.8061.0046.0055.0109.0064.0155.0119.02.0237.041.0409.06.0637a3.211,3.211,0,0,0,2.2646,1.0909,2.5123,2.5123,0,0,0,1.7018-.5318,3.941,3.941,0,0,0,.9616-1.9113A4.5593,4.5593,0,0,1,47.93,56.2a2.9818,2.9818,0,0,1,2.4011-.8468c.6447-.0037.7931-.0365.9279-.2067.0828-.1057.07-.2532-.0692-.7932a2.6213,2.6213,0,0,1,.3888-2.6151,2.8652,2.8652,0,0,1,2.749-.6238,2.792,2.792,0,0,0,.8468.0511c.1311-.1612.1457-.3861.1494-.8979a3.1626,3.1626,0,0,1,.7484-2.3447c1.2985-1.3822,3.09-.9506,4.0512-.7193a1.2612,1.2612,0,0,0,1.3494-.37,6.293,6.293,0,0,0,.031-2.4677,20.5773,20.5773,0,0,1-.1275-2.5359c.0819-2.5623,1.1527-6.09,3.9017-7.5959.0191-.01.04-.0155.0592-.0264A28.0712,28.0712,0,0,0,58.9477,33.47Zm.8769,4.29a1.5859,1.5859,0,1,1-1.1091-1.9486A1.5871,1.5871,0,0,1,59.8246,37.76Zm13.47-.3214c-2.9576-1.7574-5.3-2.1881-6.9622-1.2776-2.0716,1.1355-2.7108,4.1431-2.7618,5.74a18.9113,18.9113,0,0,0,.1184,2.2636c.1448,1.56.27,2.9084-.3934,3.8945a3.3933,3.3933,0,0,1-3.6859,1.28c-1.4-.3369-1.6973-.1694-1.9368.0874-.1348.142-.1493.36-.153.8568a3.3214,3.3214,0,0,1-.682,2.3092,2.8467,2.8467,0,0,1-2.83.6939,2.9444,2.9444,0,0,0-.83-.0538c.0073.0647.0856.37.1375.5728a2.8865,2.8865,0,0,1-.3369,2.7062,3.0463,3.0463,0,0,1-2.6342,1.038c-.4617.0028-.6893.0155-.7831.1193a3.1379,3.1379,0,0,0-.408,1.028,5.9988,5.9988,0,0,1-1.5516,2.8847q-.1105.1051-.2458.21c.1256.0163.2513.0327.377.0482,2.0724.2595,4.2168.5272,5.2612,1.9095a3.75,3.75,0,0,1,.2513,4.1312l-.2395.448c-.5681,1.0526-.549,1.1337-.3341,1.4442a2.3583,2.3583,0,0,0,.6811.1056,2.9984,2.9984,0,0,1,2.4075,1.05,3.1553,3.1553,0,0,1,.0373,3.3882,4.298,4.298,0,0,0-.2531.662,3.47,3.47,0,0,0,.5345.04,2.9932,2.9932,0,0,1,2.6634,1.2184,3.2025,3.2025,0,0,1,.3069,2.9147c-.1348.4689-.1393.5627-.0884.641a2.7845,2.7845,0,0,0,.9079.6329,6.0736,6.0736,0,0,1,2.3037,1.8976,4.324,4.324,0,0,1,.63,3.4192,4.8419,4.8419,0,0,1-2.6015,3.1278c-.275.1493-.5627.264-.8459.3915a27.6922,27.6922,0,0,0,14.6665-4.4144c3.8116-2.4276,4.5528-4.5128,3.9564-5.6637-.7321-1.4151-2.3228-1.5234-5.0691-1.5944-.52-.0128-1.0517-.0274-1.5889-.0556a4.6974,4.6974,0,0,1-3.56-1.5616,3.9559,3.9559,0,0,1-.84-3.014,5.8347,5.8347,0,0,1,1.2766-2.76,2.6743,2.6743,0,0,0,.5427-.9315c.0191-.1384-.1184-.32-.4134-.6747a3.05,3.05,0,0,1-.906-2.6817A2.7564,2.7564,0,0,1,69.309,63.942a2.3893,2.3893,0,0,0,.5-.2559c-.0564-.0837-.4061-.4125-.6155-.6091a2.9713,2.9713,0,0,1-1.2666-2.6434,3.2928,3.2928,0,0,1,1.3421-2.0269c.357-.3.5054-.438.5327-.6065.0856-.5254.0055-.6911-1.1883-1.5934a3.429,3.429,0,0,1-1.3877-3.6332c.326-1.1428,1.4369-1.9167,2.7226-2.8127a18.76,18.76,0,0,0,1.8057-1.37c.234-.21.5044-.4417.7976-.693,1.7565-1.5015,4.409-3.7706,4.2342-6.0744-.1066-1.404-1.2821-2.8118-3.4911-4.1858m5.6883,4.53c-.07,3.1743-3.0167,5.6992-5.0036,7.3993-.2786.2377-.5354.4571-.7558.6565a20.7817,20.7817,0,0,1-2.02,1.5388c-.74.5154-1.7547,1.223-1.8667,1.6136-.1884.6592.5191,1.2174.6,1.2784,1.1537.8724,2.3456,1.7738,2.0315,3.7a3.1378,3.1378,0,0,1-1.2876,1.9332c-.3879.3269-.5508.4826-.59.7111a2.9012,2.9012,0,0,0,.6055.6775,2.9488,2.9488,0,0,1,1.2666,2.5323,2.5034,2.5034,0,0,1-1.782,1.9486c-.5.2167-.5873.2832-.6073.3852-.0428.2139.0273.3477.44.844a2.9837,2.9837,0,0,1,.9015,2.3812,4.2421,4.2421,0,0,1-.9516,1.934,3.78,3.78,0,0,0-.8678,1.7565,1.7537,1.7537,0,0,0,.3579,1.3157,2.6507,2.6507,0,0,0,1.9823.7677c.5181.0282,1.0289.0409,1.5288.0537,2.7527.07,5.5991.143,6.964,2.78a3.844,3.844,0,0,1,.3661,1.1483,27.8751,27.8751,0,0,0-1.3121-37.3551Zm.4088,9.1566a1.5858,1.5858,0,1,1,1.95-1.109A1.5858,1.5858,0,0,1,79.3917,51.1248Zm34.93-15.3666c7.42,0,12.4839,4.3516,13.6612,10.6463h-6.5a7.2224,7.2224,0,0,0-7.1616-4.8114c-5.0163,0-8.3754,4.4008-8.3754,10.3895,0,5.9369,3.3591,10.3887,8.3754,10.3887a7.1993,7.1993,0,0,0,7.1616-4.8615h6.5c-1.1773,6.3457-6.241,10.6973-13.6612,10.6973-8.3936,0-15.03-6.6025-15.03-16.2245s6.6362-16.2244,15.03-16.2244M243.004,76.9276V82.66H228.1107v6.8575h13.511v5.579h-13.511v7.4721H243.004v5.783H221.6621V76.9276ZM200.1655,99.3949c.87,2.7635,3.1733,4.0429,6.2437,4.0429,3.1733,0,5.2713-1.4332,5.2713-3.9409,0-1.8931-1.1255-2.9166-3.838-3.5312l-5.63-1.2794c-4.5036-1.0234-7.9838-3.4292-7.9838-8.5975,0-5.681,4.7085-9.673,11.311-9.673,7.1653,0,11.31,3.7871,12.3337,9.1093h-6.5c-.7166-2.0988-2.5077-3.736-5.783-3.736-2.9684,0-4.9644,1.4332-4.9644,3.685,0,1.792,1.1765,2.8665,3.5312,3.4292l5.732,1.33c5.1174,1.1773,8.24,4.0948,8.24,8.8543,0,6.09-5.0154,9.7749-11.668,9.7749-7.0122,0-11.9766-3.48-13.0511-9.468Zm-35.8781-3.6842V76.9276h6.5515V95.0442c0,5.3742,2.3538,7.9328,6.5,7.9328s6.5-2.5586,6.5-7.9328V76.9276h6.5506V95.7107c0,8.6486-5.1683,13.1522-13.05,13.1522-7.8309,0-13.0511-4.5036-13.0511-13.1522M145.9131,76.4158c-8.7524,0-14.8423,6.8065-14.8423,16.2236,0,9.3651,6.09,16.2235,14.8423,16.2235s14.8923-6.8584,14.8923-16.2235C160.8054,83.2223,154.6645,76.4158,145.9131,76.4158Zm0,26.6131c-4.9644,0-8.1887-4.2477-8.1887-10.3895s3.2243-10.39,8.1887-10.39c5.0153,0,8.2907,4.2478,8.2907,10.39S150.9284,103.0289,145.9131,103.0289ZM127.8447,76.9276v31.4236h-6.5506V95.1471H107.0665v13.2041H100.515V76.9276h6.5515V89.4151h14.2276V76.9276Zm168.5776-9.2241-7.7781-20.5223V67.7035h-6.1417V36.28h7.7789L298.675,58.44l8.3426-22.16h7.6761V67.7035h-6.1919V47.1812l-7.6269,20.5223ZM267.9652,36.28h-6.4986L249.4389,67.7035H255.99l2.7636-7.574h11.7709l2.8145,7.574h6.6535ZM260.8,54.6014l3.84-10.44,3.838,10.4405ZM246.9294,36.28V67.7035h-6.5506V54.4994H226.15V67.7035H219.6V36.28H226.15V48.7674h14.2285V36.28Zm-57.168,0h26.8179v5.732H206.4457V67.7035h-6.6026V42.0119H189.7614Zm-9.113,0h-6.5L162.1221,67.7035h6.5515l2.7635-7.574H183.208l2.8146,7.574h6.6535Zm-7.1643,18.3215,3.838-10.44,3.839,10.4405ZM159.5615,36.28V67.7035h-6.5506V54.4994H138.7824V67.7035h-6.5506V36.28h6.5506V48.7674h14.2285V36.28Z" style="fill:#fff"/></svg>